<?xml version="1.0" encoding="utf-8"?>
<!-- Generator: Adobe Illustrator 16.0.0, SVG Export Plug-In . SVG Version: 6.00 Build 0)  -->
<!DOCTYPE svg PUBLIC "-//W3C//DTD SVG 1.1//EN" "http://www.w3.org/Graphics/SVG/1.1/DTD/svg11.dtd" [
	<!ENTITY ns_extend "http://ns.adobe.com/Extensibility/1.0/">
	<!ENTITY ns_ai "http://ns.adobe.com/AdobeIllustrator/10.0/">
	<!ENTITY ns_graphs "http://ns.adobe.com/Graphs/1.0/">
	<!ENTITY ns_vars "http://ns.adobe.com/Variables/1.0/">
	<!ENTITY ns_imrep "http://ns.adobe.com/ImageReplacement/1.0/">
	<!ENTITY ns_sfw "http://ns.adobe.com/SaveForWeb/1.0/">
	<!ENTITY ns_custom "http://ns.adobe.com/GenericCustomNamespace/1.0/">
	<!ENTITY ns_adobe_xpath "http://ns.adobe.com/XPath/1.0/">
]>
<svg version="1.1" id="Ebene_1" xmlns:x="&ns_extend;" xmlns:i="&ns_ai;" xmlns:graph="&ns_graphs;"
	 xmlns="http://www.w3.org/2000/svg" xmlns:xlink="http://www.w3.org/1999/xlink" x="0px" y="0px" width="365.333px"
	 height="404.667px" viewBox="119.167 199.167 365.333 404.667" enable-background="new 119.167 199.167 365.333 404.667"
	 xml:space="preserve">
<metadata>
	<sfw  xmlns="&ns_sfw;">
		<slices></slices>
		<sliceSourceBounds  width="16383" height="16383" bottomLeftOrigin="true" x="-7886" y="-7794.77"></sliceSourceBounds>
	</sfw>
</metadata>
<g>
	<path fill="#BE1E2D" d="M335.58,395.773c0,47.025-38.137,85.162-85.17,85.162c-47.034,0-85.17-38.137-85.17-85.162
		c0-47.033,38.136-85.17,85.17-85.17C297.443,310.604,335.58,348.74,335.58,395.773z"/>
</g>
<g>
	<path fill="#FFFFFF" d="M263.16,350.468c0,7.083-5.724,12.75-12.75,12.75c-7.367,0-12.75-6.46-12.75-13.827
		c0-6.913,5.836-12.183,12.75-12.183C257.606,337.265,263.16,343.272,263.16,350.468z M240.493,378.858h20.003v71.05h-20.003
		V378.858z"/>
</g>
<g>
	<path fill="#414042" d="M165.225,277.038c12.523-12.694,20.378-22.94,20.378-33.357c0-8.14-6.033-14.628-14.914-14.628
		c-9.051,0-15.369,7.4-15.824,18.557h-20.151c1.082-24.021,16.28-37.569,37.114-37.569c21.118,0,33.982,15.825,33.982,32.446
		c0,15.711-9.677,30.17-25.502,46.791l-12.067,12.637h38.48v19.184h-75.024v-9.962L165.225,277.038z"/>
	<path fill="#414042" d="M230.288,212.715h31.08v108.381h-20.663v-88.744h-22.314L230.288,212.715z"/>
</g>
<g>
	<path fill="#414042" d="M240.366,467.69h20.57v88.343h29.92v19.551h-50.49V467.69z"/>
	<path fill="#414042" d="M339.363,467.69h20.74l41.593,107.894h-21.363l-8.387-22.214h-44.029l-8.84,22.214h-21.364L339.363,467.69z
		 M349.903,496.25l-14.28,36.947h28.561L349.903,496.25z"/>
	<path fill="#414042" d="M413.144,575.584V467.69h19.663c11.276,0,20.457,1.19,27.2,5.27c8.104,4.817,12.92,13.204,12.92,22.554
		c0,8.557-3.91,15.017-11.276,20.74c12.637,6.006,18.926,14.733,18.926,27.823c0,8.84-3.003,16.206-9.293,22.213
		c-7.196,7.083-15.017,9.294-26.01,9.294H413.144z M433.77,487.24v22.666h4.534c9.633,0,14.562-4.193,14.562-11.729
		c0-6.913-4.646-10.993-13.826-10.993h-5.271V487.24z M433.77,528.267v27.823h6.914c12.92,0,19.833-3.626,19.833-12.75
		c0-9.463-7.196-15.017-21.646-15.017h-5.101V528.267z"/>
</g>
<path fill="none" d="M241,310.179c0,0.363,8.945,0.656,20,0.656"/>
<rect x="240" y="311.179" fill="#FFFFFF" width="21" height="10"/>
<rect x="240.366" y="467.69" fill="#FFFFFF" width="20.634" height="11.981"/>
</svg>
