<?xml version="1.0" encoding="utf-8"?>
<!-- Generator: Adobe Illustrator 20.1.0, SVG Export Plug-In . SVG Version: 6.00 Build 0)  -->
<svg version="1.1" id="Ebene_1" xmlns="http://www.w3.org/2000/svg" xmlns:xlink="http://www.w3.org/1999/xlink" x="0px" y="0px"
	 viewBox="0 0 1080 340" style="enable-background:new 0 0 1080 340;" xml:space="preserve">
<style type="text/css">
	.st0{fill:#BE1E2D;}
	.st1{fill:#FFFFFF;}
	.st2{fill:#414042;}
</style>
<g>
	<g>
		<path class="st0" d="M592.2,170c0,83-67.3,150.3-150.3,150.3c-83,0-150.3-67.3-150.3-150.3c0-83,67.3-150.3,150.3-150.3
			C524.9,19.7,592.2,87,592.2,170z"/>
		<g>
			<defs>
				<path id="SVGID_1_" d="M592.2,170c0,83-67.3,150.3-150.3,150.3c-83,0-150.3-67.3-150.3-150.3c0-83,67.3-150.3,150.3-150.3
					C524.9,19.7,592.2,87,592.2,170z"/>
			</defs>
			<clipPath id="SVGID_2_">
				<use xlink:href="#SVGID_1_"  style="overflow:visible;"/>
			</clipPath>
		</g>
		<g>
			<defs>
				<path id="SVGID_3_" d="M592.2,170c0,83-67.3,150.3-150.3,150.3c-83,0-150.3-67.3-150.3-150.3c0-83,67.3-150.3,150.3-150.3
					C524.9,19.7,592.2,87,592.2,170z"/>
			</defs>
			<clipPath id="SVGID_4_">
				<use xlink:href="#SVGID_3_"  style="overflow:visible;"/>
			</clipPath>
		</g>
		<g>
			<defs>
				<path id="SVGID_5_" d="M592.2,170c0,83-67.3,150.3-150.3,150.3c-83,0-150.3-67.3-150.3-150.3c0-83,67.3-150.3,150.3-150.3
					C524.9,19.7,592.2,87,592.2,170z"/>
			</defs>
			<clipPath id="SVGID_6_">
				<use xlink:href="#SVGID_5_"  style="overflow:visible;"/>
			</clipPath>
		</g>
	</g>
	<g>
		<path class="st1" d="M464.4,90.2c0,12.5-10.1,22.5-22.5,22.5c-13,0-22.5-11.4-22.5-24.4c0-12.2,10.3-21.5,22.5-21.5
			C454.6,66.9,464.4,77.5,464.4,90.2z M424.4,140.3h35.3v125.4h-35.3V140.3z"/>
	</g>
	<g>
		<path class="st2" d="M86.9,188.3c22-22.3,35.8-40.3,35.8-58.6c0-14.3-10.6-25.7-26.2-25.7c-15.9,0-27,13-27.8,32.6H33.3
			c1.9-42.2,28.6-66,65.2-66c37.1,0,59.7,27.8,59.7,57c0,27.6-17,53-44.8,82.2L92.2,232h67.6v33.7H28v-17.5L86.9,188.3z"/>
		<path class="st2" d="M201.2,75.3h54.6v190.4h-36.3V109.8h-39.2L201.2,75.3z"/>
	</g>
	<g>
		<path class="st2" d="M628,75.3h36.3v155.9h52.8v34.5H628V75.3z"/>
		<path class="st2" d="M802.7,75.3h36.6l73.4,190.4h-37.7l-14.8-39.2h-77.7l-15.6,39.2h-37.7L802.7,75.3z M821.3,125.7l-25.2,65.2
			h50.4L821.3,125.7z"/>
		<path class="st2" d="M932.9,265.7V75.3h34.7c19.9,0,36.1,2.1,48,9.3c14.3,8.5,22.8,23.3,22.8,39.8c0,15.1-6.9,26.5-19.9,36.6
			c22.3,10.6,33.4,26,33.4,49.1c0,15.6-5.3,28.6-16.4,39.2c-12.7,12.5-26.5,16.4-45.9,16.4H932.9z M969.3,109.8v40h8
			c17,0,25.7-7.4,25.7-20.7c0-12.2-8.2-19.4-24.4-19.4H969.3z M969.3,182.2v49.1h12.2c22.8,0,35-6.4,35-22.5
			c0-16.7-12.7-26.5-38.2-26.5H969.3z"/>
	</g>
</g>
</svg>
